<?xml version="1.0" encoding="UTF-8"?>
<svg id="Capa_2" data-name="Capa 2" xmlns="http://www.w3.org/2000/svg" viewBox="0 0 688.2 208.09">
  <defs>
    <style>
      .cls-1 {
        fill: #fff;
      }

      .cls-2 {
        fill: #b30511;
      }
    </style>
  </defs>
  <path d="m70.18,15.72c-.76-1.03-1.62-2.24-2.31-3.68l4.38-2.11c.51,1.06,1.19,2.01,1.84,2.9l-3.91,2.88Z"/>
  <path d="m72.14,14.28c-.75-1.01-1.49-2.07-2.08-3.29.59,1.22,1.33,2.28,2.08,3.29Z"/>
  <path d="m60.56,22.51c1.42-1.21,2.71-2.08,3.94-2.67l2.1,4.38c-.83.4-1.8,1.07-2.88,1.99l-3.15-3.7Z"/>
  <path d="m65.55,22.03c-1.21.58-2.39,1.46-3.41,2.33,1.02-.87,2.2-1.75,3.41-2.33Z"/>
  <rect class="cls-2" x="71.79" y="177.31" width="4.93" height="4.86" transform="translate(-114.85 134.38) rotate(-54.07)"/>
  <path class="cls-2" d="m72.81,181.73c.98-1.35,1.98-2.74,2.89-3.99-.91,1.26-1.91,2.64-2.89,3.99Z"/>
  <path d="m93.34,203.39c-2.41-1.4-4.72-2.71-6.95-3.99-4.66-2.67-9.07-5.19-13.39-7.82-17.07-10.38-30.53-21.78-41.15-34.83-9.17-11.27-15.77-23.5-19.62-36.37-.61-2.05-1.18-4.13-1.73-6.14-.99-3.65-1.93-7.1-3.15-10.46-.53-1.48-1.6-3.02-2.83-4.8-.69-1-1.41-2.04-2.14-3.21l-2.38-3.8,4.05-1.93c2.12-1.01,2.7-2.96,3.53-7.16,2.57-13.01,6.75-25.3,12.44-36.54,6.08-12,15.11-21.92,27.6-30.34,4.54-3.06,9.23-5.99,13.77-8.83l1.68-1.05c2.56-1.6,5.01-2.38,7.5-2.38,1.62,0,3.24.34,4.82,1.01,8.6,3.64,18.33,5.41,29.74,5.41,2.11,0,4.33-.06,6.62-.18.8-.04,1.65-.06,2.67-.06.71,0,1.43,0,2.19.02.81,0,1.66.02,2.57.02h5.69l-1.92,5.35c-1.47,4.09-4.21,6.63-6.62,8.87-1.43,1.33-2.78,2.58-3.59,3.94-1.66,2.8-3.56,5.41-5.4,7.93-1.3,1.78-2.52,3.46-3.67,5.2-2.61,3.96-5.23,8.23-7.8,12.71-.61,1.06-1.21,2.13-1.8,3.2-1.94,3.49-3.96,7.09-6.45,10.54l-7.71,10.62,1.56-43.55c-1.28-.7-2.58-1.35-3.89-1.94-.31-.14-.61-.28-.92-.41-.04.94-.08,1.88-.11,2.82-.23,6.68-.23,13.48,0,20.19l.04,1.06-12.37,23.57-1.7-12.37c-1.35-9.79-2.11-19.68-2.28-29.5-8.21,9.74-19.06,26.71-19.85,48.97,0,.29-.65,30.75,25.19,62.63,2.47,3.05,5.23,5.64,5.26,5.67,2.71,2.54,5.69,4.81,8.88,6.77l17.28-20.69,1.44,8.58c.58,3.48-.08,6.16-.61,8.32-.1.4-.2.79-.28,1.18-1.83,8.49-2.41,15.58-1.8,22.32.22,2.48.75,4.99,1.31,7.64.18.87.37,1.74.54,2.6.23,1.15.54,2.36.93,3.88.22.85.46,1.8.73,2.9l2.24,9.12-8.13-4.71Z"/>
  <path class="cls-1" d="m111.96,13.97c-13.08.68-25.91-.37-38.13-5.54-3.17-1.34-5.96-.59-8.64,1.08-5.14,3.22-10.3,6.41-15.33,9.8-11.08,7.47-20.16,16.77-26.27,28.83-5.71,11.27-9.65,23.12-12.09,35.5-.79,3.98-1.58,8.02-5.74,10,2.1,3.37,4.29,5.86,5.34,8.77,1.99,5.48,3.27,11.22,4.95,16.82,3.88,12.96,10.41,24.57,18.89,34.99,11.22,13.79,24.98,24.73,40.12,33.94,6.32,3.85,12.8,7.44,20.27,11.76-.77-3.14-1.31-5.03-1.69-6.95-.7-3.54-1.59-7.08-1.91-10.66-.71-7.92.2-15.75,1.88-23.52.5-2.32,1.4-4.73.85-8-4.95,5.93-9.31,11.14-13.85,16.59-3.32-1.79-7.88-4.63-12.53-8.99,0,0-2.94-2.75-5.63-6.07-27.2-33.56-26.08-65.29-26.08-65.29,1.12-31.74,21.49-52.74,26.94-58.03.31-.27.63-.53.94-.8,0,.35-.02.87-.03,1.5-.1,5.87.17,10.24.29,12.24.3,5,.82,15.07,1.57,28.35,2.15-4.9,4.31-9.81,6.46-14.71-.22-6.52-.24-13.35,0-20.47.1-2.84.23-5.63.4-8.37,1.94.64,4.05,1.44,6.28,2.45,2.38,1.08,4.48,2.21,6.33,3.32-.39,10.82-.78,21.83-1.18,32.85,3.1-4.27,5.45-8.89,8.02-13.38,2.51-4.38,5.15-8.71,7.93-12.93,2.89-4.39,6.29-8.46,8.97-12.97,2.61-4.41,7.91-6.62,9.89-12.12-2.8,0-5.01-.1-7.22.02ZM20.46,97.3c.36,1.54,1.18,2.86,2.5,4.25-1.32-1.4-2.14-2.71-2.5-4.25Zm5.13-44.74c.93-.99,2.19-1.64,4.04-1.79-1.85.15-3.1.8-4.04,1.79Zm8.71,22.84c.5-4.13,1.09-8.21,2.09-12.18-1,3.97-1.6,8.05-2.09,12.18Zm27.84-51.03c1.02-.87,2.2-1.75,3.41-2.33-1.21.58-2.39,1.46-3.41,2.33Z"/>
  <path class="cls-2" d="m75.7,177.74c-.91,1.26-1.91,2.64-2.89,3.99.98-1.35,1.98-2.74,2.89-3.99Z"/>
  <path d="m33.89,110.9h0c-.05.21-.09.4-.13.6.04-.2.09-.39.13-.6Z"/>
  <path class="cls-2" d="m33.31,140.73c.19-.6.41-1.27.68-2.12-.27.85-.49,1.52-.68,2.12Z"/>
  <path d="m46.7,31.6c.58-.04,1.14-.04,1.68.01-.54-.05-1.1-.05-1.68-.01Z"/>
  <path d="m311.27,159.85c-2.46,0-4.33-1.4-6.49-3.01-6.33-4.73-13.88-8.32-22.43-10.68l-2.38-.66-.48-2.42c-.02-.12-.06-.24-.09-.34-.19-.66-.78-2.68.7-4.44,2.92-3.43,3.49-7.53,3.46-12.62-.13-21.55-.08-43.45-.04-64.64.02-7.61.03-15.21.04-22.82v-7.67s40.82-27.9,40.82-27.9l-4.98,12.29c-.17.41-.32.84-.47,1.27-.42,1.19-.9,2.53-1.7,3.84-3.58,5.85-5.47,12.78-5.77,21.21-.22,6.3-.17,12.63-.12,19.33,0,.39,0,.79,0,1.18,1.23-1.21,2.42-2.5,3.64-3.82,2-2.17,4.06-4.41,6.5-6.49l3-2.56,6.06,6.9c3.08,3.51,6.07,6.91,9.04,10.33.58.67,1.07,1.35,1.5,1.95.46.64.89,1.24,1.31,1.66,2.63,2.64,3.84,5.81,3.8,9.96-.16,19.04-.2,34.65-.12,49.12.03,5.15-1.95,8.93-6.21,11.87-5.04,3.48-10.07,7.23-14.94,10.85-2.33,1.73-4.65,3.46-6.99,5.18-2.46,1.81-4.25,3.11-6.68,3.11h0Zm4.02-83.07c-3.52,2.5-4.65,5-4.47,9.14.51,11.6.49,24.06-.07,40.41-.12,3.53.88,5.63,3.8,7.48,1.08-.84,2.19-1.69,3.37-2.49.74-.5,1.07-.96,1.07-2.34-.02-6.34-.02-12.68-.01-19.02,0-8.9.01-18.11-.05-27.15,0-.83-.39-1.97-.94-2.79-.72-1.07-1.64-2.1-2.7-3.24Z"/>
  <path class="cls-1" d="m339.57,72.57c-1.13-1.14-1.94-2.59-3-3.81-4.06-4.68-8.16-9.32-12.48-14.26-5.86,4.99-9.7,11.37-16.69,15.42,0-10.29-.25-19.56.07-28.8.28-8.15,1.99-16.04,6.35-23.16.85-1.39,1.27-3.04,1.88-4.52-9.23,6.31-18.21,12.45-28.13,19.23,0,1.54,0,3.55,0,5.56-.03,29.14-.18,58.29,0,87.43.04,5.69-.64,10.8-4.4,15.23-.15.18.12.73.26,1.42,8.48,2.34,16.54,5.95,23.76,11.33,4.03,3.01,4.23,2.94,8.41-.12,7.33-5.37,14.54-10.93,22.02-16.1,3.19-2.21,4.51-4.73,4.49-8.56-.09-16.39-.02-32.79.12-49.18.02-2.81-.64-5.1-2.64-7.11Zm-19.39,62.06c-1.81,1.23-3.5,2.63-5.23,3.94-5.54-2.64-8.41-6.05-8.19-12.38.46-13.36.66-26.75.07-40.1-.31-7.03,2.76-10.88,9.17-14.46,1.93,2.18,3.88,4,5.32,6.15.94,1.41,1.6,3.3,1.61,4.99.11,15.39.02,30.79.07,46.19,0,2.46-.78,4.27-2.82,5.66Z"/>
  <path d="m175.34,192.94c-.06-.49-.13-.92-.2-1.32-.15-.96-.3-1.87-.29-2.9l.1-21.09c.12-26.71.25-54.34.57-81.52.06-4.88-1.36-8.47-4.6-11.64l-3.63-3.57,38.68-24.01-.86,10.43c.48-.45.95-.91,1.43-1.37,1.79-1.73,3.65-3.53,5.77-5.18l2.74-2.15,2.5,2.42c.46.44.91.87,1.36,1.29,1.03.97,2.1,1.98,3.11,3.07.9.97,1.72,1.97,2.51,2.93,1.33,1.61,2.58,3.14,3.97,4.25,6.77,5.39,7.54,12.19,7.41,18.14-.34,14.94-.24,30.17-.14,44.89l.04,5.99c.02,3.58-.56,7.69-5.07,11.01-4.28,3.15-8.34,6.46-12.63,9.98-1.75,1.43-3.5,2.86-5.27,4.29l-1.74,1.39-2.1-.74c-4.05-1.43-6.62-4.28-8.86-6.86.02,1.32.04,2.63.05,3.95.09,6.11.18,12.44.1,18.68-.02,1.65-.35,5.75-2.91,8.27-3.51,3.45-7.15,6.63-11.01,10-1.44,1.26-2.91,2.54-4.39,3.86l-5.64,5.01-.98-7.48Zm30.22-115.25c-2.83,1.74-3.89,3.35-3.9,5.67,0,6.47.07,13.05.14,19.42.08,7.73.17,15.72.12,23.59-.02,2.97,1.03,5.08,3.74,7.21,3.07-2.01,4.14-4.44,3.96-8.51-.53-12.04-.49-24.8.13-37.9.2-4.22-.97-6.97-4.19-9.49Z"/>
  <path class="cls-1" d="m226.01,65.71c-2.64-2.11-4.59-5.07-6.93-7.59-1.34-1.44-2.81-2.75-4.31-4.2-4.96,3.89-8.59,8.77-14.41,12.26.35-4.28.65-7.81.97-11.69-9.36,5.81-18.18,11.29-27.6,17.13,4.01,3.93,5.86,8.63,5.79,14.54-.4,34.19-.5,68.39-.67,102.58,0,1.06.26,2.12.46,3.68,5.41-4.8,10.52-9.06,15.25-13.71,1.22-1.2,1.69-3.61,1.71-5.47.1-8.09-.08-16.18-.17-24.28-.02-2.16-.09-4.31,1.3-6.38,5.08,3.18,7.25,9.17,12.91,11.16,6.04-4.86,11.88-9.84,18.04-14.37,2.87-2.11,3.46-4.51,3.44-7.76-.1-17-.28-34,.11-50.99.14-6.1-.93-10.97-5.9-14.92Zm-12.26,21.65c-.59,12.49-.68,25.05-.13,37.54.3,6.75-2.46,10.58-8.2,13.4-4.34-2.77-7.53-6.07-7.5-11.95.09-14.33-.27-28.66-.26-43,0-5.35,3.71-8.13,8.14-10.36,5.43,3.39,8.27,7.54,7.95,14.37Z"/>
  <path d="m384.76,146.04c-1.65,1.49-3.23,3.13-4.87,4.83-2.81,2.91-5.71,5.92-9.34,8.56l-2.9,2.1-2.41-2.65c-.83-.91-1.63-1.85-2.43-2.79-1.62-1.9-3.14-3.69-4.84-5.11-7.15-5.99-9.82-13.65-8.41-24.11.5-3.67.36-7.5.22-11.55-.04-1.17-.08-2.35-.11-3.52-.13-5.86,2.2-10.1,7.33-13.35,7.21-4.56,14.35-9.58,21.26-14.44,1.86-1.31,3.73-2.62,5.6-3.93.03-.02.06-.04.09-.06-2.08-1.55-4.45-2.8-7.28-4.04l-8.06,12.43-3.44-2.69c-3.17-2.48-5.59-5.36-7.93-8.14-1.36-1.62-2.64-3.14-4.04-4.57l-3.36-3.42,32.99-22.4,2.26,1.6c1.3.92,2.63,1.9,3.98,2.89,3.08,2.26,6.26,4.59,9.56,6.63,3.33,2.05,6.93,3.92,10.42,5.72,1.59.82,3.17,1.64,4.74,2.47l3.11,1.66-1.26,3.29c-.42,1.11-.89,2.18-1.33,3.22-.93,2.15-1.8,4.19-2.18,6.15-.41,2.17-.36,4.58-.3,7.13.02,1.01.05,2.02.04,3.02-.02,5.86-.03,11.72-.03,17.58,0,6.08-.02,12.16-.04,18.24v.15q-.03,7.35,3.49,13.06l1.71,2.79-20.63,19.29-11.62-16.05Zm.23-46.67c-1.91,1.47-3.77,2.89-5.7,4.28-1.45,1.04-1.92,2-1.85,3.81.23,6.24.4,12.36,0,18.6-.24,3.82.31,5.85,2.25,7.31.14-.09.27-.18.41-.27,3.46-2.18,4.79-4.84,4.6-9.17-.21-4.76-.05-9.53.09-14.15.09-2.98.19-6.06.19-9.06,0,0,0-1.04,0-1.35Z"/>
  <path class="cls-1" d="m411.9,70.03c-5.11-2.73-10.41-5.25-15.37-8.31-4.9-3.03-9.46-6.61-13.76-9.65-9.2,6.24-17.84,12.12-26.73,18.15,4,4.07,7.02,8.79,11.59,12.36,2.64-4.07,5-7.72,7.5-11.56,5.68,2.27,10.48,4.53,14.6,8.79-1.34,1.36-2.31,2.69-3.57,3.57-8.94,6.24-17.79,12.64-27,18.47-3.95,2.5-5.56,5.45-5.46,9.88.12,5.23.55,10.55-.14,15.69-1.11,8.19.44,15,7.01,20.5,2.84,2.38,5.1,5.47,7.65,8.27,6.66-4.83,10.95-11.34,17.32-15.92,4.02,5.56,7.64,10.55,11.44,15.8,5.27-4.93,10.1-9.45,14.93-13.96q-4.14-6.72-4.08-15.32c.04-11.94.03-23.88.07-35.81.01-3.64-.35-7.37.32-10.89.66-3.44,2.41-6.68,3.7-10.05Zm-23.2,53.72c.25,5.75-1.77,9.76-6.46,12.72-.84.53-1.61,1.17-2.25,1.65-5.9-2.66-6.88-6.99-6.55-12.32.38-6.05.21-12.15-.01-18.21-.12-3.18,1-5.39,3.52-7.2,3.39-2.44,6.66-5.04,10.25-7.78,1.89,2.93,1.79,5.61,1.79,8.1,0,7.68-.62,15.38-.28,23.04Z"/>
  <path d="m636.21,193.74c.96-1.23,1.93-2.45,2.9-3.67,2.06-2.58,4.18-5.26,6.14-7.93,8.04-10.97,11.88-22.8,11.73-36.15-.12-11.21-.03-22.59.07-32.24.1-8.89.25-19.39.64-29.84.1-2.58-.6-4.27-2.4-5.56-3.57,2.43-4.97,5.84-4.78,11.29.32,9.05.41,18.24.49,27.12.05,5.27.1,10.71.2,16.06.04,1.96.26,3.97.52,6.3.13,1.2.28,2.45.4,3.79l.15,1.63-14.12,17.29-13.1-17.82.11-1.47c.14-1.86.3-3.66.46-5.42.33-3.64.63-7.08.68-10.47.08-5.78.08-11.67.09-17.37,0-7.66,0-15.57.2-23.38.1-3.77-.54-5.92-2.42-7.5-2.58,1.82-3.6,4.03-3.53,7.39.19,9.38.22,18.9.25,28.11.02,6.53.04,13.29.12,19.92.02,1.51.33,3.16.69,5.08.2,1.05.4,2.15.58,3.31l.28,1.82-14.24,16.5-2.97-2.14c-2.62-1.88-4.65-4.12-6.62-6.28-2.17-2.38-4.21-4.63-6.78-6.06l-4.12-2.3,2.95-3.69c.49-.62.96-1.16,1.4-1.67.7-.82,1.26-1.46,1.56-2.01.55-1.02,1.34-2.47,1.36-3.16.23-13.58.27-26.95.28-39.38v-1.23c0-4.67.02-9.49-.43-14.1-.13-1.4-.71-3-1.44-5.02-.42-1.15-.88-2.45-1.35-3.93l-.65-2.07,16.6-20.18,10.54,13.94c1.36-1.08,2.58-2.39,3.83-3.75,1.86-2.01,3.78-4.08,6.39-5.73l2.33-1.47,15.24,11.39,15.24-13.23,25.31,21.53-1.91,2.95c-2.19,3.38-2.34,7.69-2.31,12.19.11,15.21.22,35.24.07,55.35-.03,3.41,1.05,6.2,3.38,8.78l1.96,2.18-1.48,2.53c-11.56,19.7-26.39,34.65-45.34,45.71l-5.17-5.92Z"/>
  <path class="cls-1" d="m678.86,140.44c.14-18.43.06-36.86-.07-55.29-.04-5.13.18-10.11,2.96-14.39-6.78-5.76-13.34-11.34-20.01-17.02-5.05,4.38-9.87,8.57-15.08,13.09-5.51-4.12-10.61-7.93-15.62-11.67-4.95,3.13-7.5,8.73-13.37,11.39-3.19-4.22-6.28-8.3-9.67-12.78-4.52,5.5-8.7,10.57-12,14.59,1.3,4.15,2.68,6.9,2.95,9.76.5,5.21.45,10.48.45,15.72-.01,13.15-.06,26.3-.28,39.44-.03,1.69-1,3.45-1.84,5-.75,1.37-1.93,2.51-3.34,4.27,5.65,3.16,8.65,8.89,13.78,12.59,3.98-4.61,7.52-8.71,10.64-12.33-.52-3.41-1.29-6.17-1.32-8.95-.19-16-.04-32-.37-47.99-.13-6.18,2.8-9.7,7.62-12.17,5.28,2.77,6.46,6.94,6.32,12.31-.35,13.56-.09,27.14-.29,40.7-.07,5.19-.72,10.38-1.15,16.12,2.64,3.59,5.71,7.76,9.17,12.47,3.58-4.39,6.74-8.26,9.82-12.02-.38-3.99-.88-7.19-.94-10.4-.27-14.37-.18-28.75-.69-43.11-.26-7.24,1.98-12.59,8.74-16.04,4.33,2,6.64,5.18,6.44,10.32-.37,9.91-.53,19.82-.64,29.74-.12,10.72-.19,21.44-.07,32.15.16,14.29-4.11,27.1-12.51,38.56-2.92,3.99-6.08,7.81-9.12,11.7,18.52-10.81,32.94-25.59,43.91-44.28-2.94-3.25-4.44-6.95-4.41-11.49Z"/>
  <path d="m136.53,145.91c-2.55,1.85-4.79,4.2-7.12,6.64-2.11,2.21-4.29,4.5-6.84,6.58l-2.35,1.91-2.48-1.74c-.29-.2-.59-.39-.89-.57-.9-.56-2.03-1.26-3-2.32-1.52-1.65-3-3.35-4.43-4.99-1.57-1.8-3.19-3.66-4.82-5.41-2.39-2.55-3.53-5.62-3.5-9.37.07-8.48.12-17.58,0-26.62-.06-4.57,1.7-7.86,5.54-10.35,5.49-3.56,11-7.34,16.33-10.99,3.4-2.33,6.81-4.66,10.23-6.96.89-.6,1.79-1.08,2.73-1.53-1.09-.98-2.69-1.74-4.88-2.74-.86-.39-1.76-.8-2.68-1.27l-9.3,12.81-17.3-19.83,33.58-22.58,2.33,2.4c6.54,6.74,15.25,12.04,28.25,17.17l5.41,2.14-3.93,4.29c-4.37,4.77-4.87,9.92-4.26,17.75.25,3.24.11,6.43-.04,9.51-.09,2.04-.18,3.97-.16,5.89.04,4.19.15,8.46.26,12.59.11,4.42.23,8.98.27,13.49.02,2.34,1.06,4.32,3.72,7.07l2.84,2.94-21.77,20.14-11.74-16.04Zm-7.85-40.63c0,1.82.03,3.61.05,5.38.06,5.67.12,11.02-.15,16.48-.13,2.65.58,4.39,2.66,6.06.78-.65,1.64-1.3,2.62-1.85,1.8-.99,2.68-2.2,2.53-6.05-.15-3.75-.08-7.52-.01-11.17.03-1.8.07-3.6.08-5.4.01-3.06.01-6.12,0-9.44l-7.78,5.99Z"/>
  <path class="cls-1" d="m134.82,51.76c-9.25,6.22-17.89,12.03-27.05,18.18,3.49,4.01,7,8.02,11.02,12.63,3.01-4.15,5.56-7.66,8.5-11.71,5.18,3.78,12.51,4.15,14.17,11.14-2.41,1.2-4.35,1.91-6.02,3.03-8.89,5.97-17.64,12.16-26.62,17.99-2.76,1.79-3.76,3.81-3.72,6.94.12,8.9.08,17.8,0,26.71-.02,2.56.62,4.68,2.42,6.6,3.18,3.39,6.12,7,9.27,10.42.88.96,2.15,1.56,3.24,2.33,6.19-5.04,10.35-11.79,17.53-15.45,3.76,5.14,7.41,10.12,11.26,15.4,5.26-4.86,10.12-9.36,15.48-14.32-2.84-2.94-4.81-5.86-4.84-9.82-.07-8.69-.43-17.38-.52-26.07-.05-5.05.6-10.13.21-15.13-.58-7.41-.46-14.48,5.3-20.76-11.48-4.54-21.76-9.97-29.65-18.11Zm5.63,56.99c-.02,5.46-.29,10.94-.07,16.39.17,4.18-.65,7.53-4.59,9.71-1.55.85-2.82,2.2-4.25,3.34-4.6-2.63-7.24-5.76-6.97-11.25.38-7.67.09-15.36.09-23.63,5.12-3.94,9.87-7.59,15.78-12.14,0,6.8.02,12.19,0,17.57Z"/>
  <path d="m418.32,143.36l1.06-2.58.04-.12c.18-.59.51-1.68,1.43-2.64,2.65-2.75,3.74-5.84,3.64-10.32-.26-12.21-.26-25.56.02-40.8.11-6.24-.53-9.67-4.5-12.24l-4.38-2.84,24.69-22.16,2.68,2.67c2.77,2.76,3.94,6.07,4.98,8.99.28.78.54,1.54.84,2.27.27-.33.55-.7.86-1.11.75-.99,1.6-2.12,2.67-3.13,1.73-1.65,3.42-3.42,5.2-5.3.83-.88,1.69-1.78,2.58-2.7l2.94-3.04,20.79,22.5-2.25,2.7c-2,2.39-3.88,4.76-5.86,7.28-3.69,4.66-7.5,9.48-12.14,14.45l-5.56,5.96-1.31-8.05c-.33-2.06-.46-4.01-.59-5.91-.29-4.34-.56-7.13-2.32-9.17-.45.3-.92.62-1.38.94-1.65,1.14-2.73,2.59-2.66,6.01.32,15.89.48,30.39.49,44.32,0,4.81.48,7.11,3.43,8.94l4.4,2.72-20.78,19.83-19-17.45Z"/>
  <path class="cls-1" d="m455.1,62.24c-2.51,2.39-3.89,6.11-7.6,7.15-3.49-4.38-3.34-10.27-7.31-14.23-5.99,5.37-11.77,10.56-17.99,16.14,6.02,3.9,6.43,9.55,6.32,15.67-.24,13.54-.31,27.1-.02,40.64.11,5.22-1.2,9.49-4.76,13.19-.37.38-.45,1.03-.65,1.51,4.84,4.44,9.55,8.77,14.19,13.03,4.83-4.61,9.43-9,14.33-13.67-4.91-3.04-5.32-7.48-5.33-12.34,0-14.75-.19-29.5-.49-44.24-.08-4,1.1-7.11,4.39-9.38,1.43-.99,2.89-1.93,3.91-2.6,7.12,4.45,5.37,11.82,6.6,19.39,6.95-7.44,12.02-14.57,17.86-21.56-5.31-5.74-10.29-11.14-15.54-16.81-2.84,2.94-5.28,5.62-7.9,8.11Z"/>
  <path d="m562.97,148.33l-13.68,11.39-29.67-16.46,2.43-3.62c.12-.17.24-.37.37-.58.4-.63.9-1.42,1.52-2.2,1.72-2.19,2.52-4.62,2.51-7.65-.02-5.93,0-11.87.02-17.8.04-9.88.07-20.11-.09-30.14-.03-2.07-.64-4.3-1.41-7.13-.41-1.51-.88-3.21-1.29-5.08l-.43-1.91,15.64-18.97,3.08,3.84c1,1.25,1.97,2.45,2.92,3.62,2.57,3.17,5.01,6.17,7.3,9.3,1.46,2,2.14,5.71.68,8.23-1.33,2.29-1.32,4.93-1.32,8,0,4.36.05,8.71.09,13.07.09,9.88.18,20.1-.08,30.18-.11,4.36.77,7.05,3.16,9.13,3.39-2.23,4.68-5.11,4.51-9.69-.39-10.5-.19-21.15,0-31.44.06-3.15.12-6.3.16-9.46.06-4.18-.05-7.6-2-10.33l-.97-1.36.29-1.65c.66-3.82,2.94-6.11,4.77-7.95.6-.61,1.17-1.18,1.6-1.73,1.37-1.76,2.8-3.51,4.3-5.37.7-.86,1.43-1.76,2.2-2.71l2.56-3.18,3.12,2.63c2.84,2.39,4.96,5.08,7,7.67,1.81,2.3,3.51,4.47,5.62,6.29l2.99,2.59-2.55,3.02c-3.29,3.89-3.23,8.18-3.16,13.6l.02,1.29c.08,8.53-.08,17.18-.23,25.55-.08,4.46-.17,8.92-.21,13.38q-.09,8.55,4.45,15.18l1.92,2.79-17.82,19.04-10.32-13.39Z"/>
  <path class="cls-1" d="m580.74,124.67c.14-12.95.57-25.9.45-38.85-.06-6.11-.49-12.1,4.09-17.51-4.88-4.23-7.6-9.75-12.57-13.92-2.43,3.01-4.48,5.49-6.45,8.02-1.94,2.49-4.95,4.25-5.59,7.92,2.7,3.79,2.81,8.2,2.75,12.71-.19,13.57-.67,27.15-.17,40.69.27,7.45-2.84,11.67-8.77,14.57-5.48-3.32-7.06-7.87-6.91-13.95.37-14.37.03-28.75,0-43.13,0-3.44,0-6.83,1.86-10.01.54-.92.25-2.92-.44-3.86-3.08-4.2-6.43-8.19-10.12-12.79-4.23,5.13-8.03,9.74-11.26,13.66,1.19,5.3,2.74,9.15,2.8,13.02.26,15.99.02,31.99.07,47.99.01,3.83-1.02,7.16-3.37,10.14-.7.88-1.27,1.86-1.71,2.53,7.91,4.39,15.45,8.57,23.46,13.01,4.61-3.84,9.52-7.93,14.77-12.3,3.45,4.48,6.58,8.53,9.99,12.96,4.52-4.83,8.49-9.07,12.41-13.26-5.32-7.75-5.36-7.75-5.25-17.63Z"/>
  <path d="m241.04,144.52v-1.94c0-.1,0-.18-.01-.24-.04-.5-.14-2.01,1.02-3.34,3.62-4.16,4.23-9.18,4.03-15.94-.3-10.21-.29-21.39.01-34.19.18-7.34-.53-11.31-5.01-14.01l-4.76-2.87,23.07-19.61,2.55,1.85c4.6,3.35,8.25,7.6,12.11,12.09l3.01,3.49-2.13,2.6c-2.97,3.62-2.96,7.91-2.96,12.87v.38c0,10.97.01,21.95.01,32.92v8.95q0,6.93,3.84,12.56l1.78,2.61-16.26,17.88-20.31-16.06Z"/>
  <path class="cls-1" d="m267.98,85.67c0-5.47-.1-10.95,3.86-15.79-4.15-4.81-7.73-9.11-12.25-12.41-5.53,4.7-10.79,9.17-16.44,13.97,6.78,4.09,7.11,10.59,6.94,17.53-.27,11.32-.34,22.66-.02,33.97.2,6.86-.3,13.27-5.02,18.69-.1.11-.01.38-.01.94,5.11,4.04,10.39,8.21,15.87,12.54,4.14-4.55,7.91-8.69,11.62-12.78q-4.53-6.65-4.53-14.81c0-13.96,0-27.91-.02-41.87Z"/>
  <path d="m484.2,144.58v-1.86c0-.07-.01-.15-.02-.22-.07-.71-.24-2.38,1.06-3.84,3.28-3.67,3.87-8.16,3.75-14.23-.23-12.03-.2-24.6.08-38.44.11-5.29-.9-8.03-3.72-10.09-.91-.66-1.47-1.47-1.85-2l-.17-.24c-.81-1.09-1.26-2.93-.44-4.55l.37-.74,20.01-16.73,16.46,18.6-1.21,2.42q-3.23,6.44-3.21,15.5v.29c.02,11.97.03,24.82-.06,37.71,0,.63-.02,1.27-.03,1.9-.09,5.19-.02,8.47,2.53,10.46l3.4,2.65-17.72,19.58-19.23-16.15Z"/>
  <path class="cls-1" d="m511.25,126.12c.08-12.56.08-25.12.06-37.68-.02-10.22-.05-10.22,3.64-17.59-4.07-4.6-7.94-8.98-12.09-13.66-5.91,4.94-11.11,9.29-16.39,13.71,0,0-.01.23.09.38.36.48.68,1.04,1.15,1.38,4.6,3.36,5.48,8.01,5.37,13.4-.27,12.76-.33,25.53-.08,38.28.12,6.26-.39,12.08-4.76,16.97-.2.22-.02.77-.02,1.4,4.8,4.03,9.7,8.14,14.85,12.47,4.16-4.6,8.06-8.9,12.24-13.53-4.76-3.7-4.09-9.67-4.05-15.54Z"/>
  <path d="m489.33,38.29l27.48-36.61,1.79,8.68c1.45,7,.9,13.02.43,18.34-.11,1.2-.22,2.4-.3,3.59-.14,1.97-1.29,4.1-2.93,5.41-3.42,2.72-6.9,5.38-10.58,8.19l-7.17,5.49-8.72-13.08Z"/>
  <path class="cls-1" d="m494.23,38.43c1.63,2.44,2.96,4.43,4.78,7.17,5.16-3.96,9.78-7.43,14.3-11.03.72-.57,1.37-1.66,1.43-2.56.45-6.45,1.58-12.92-.05-20.84-7.32,9.75-13.88,18.49-20.46,27.25Z"/>
  <path d="m246.3,35.33L272.53,0l2.53,7.02c1.42,3.93,1.26,7.12,1.14,9.69-.02.45-.04.88-.05,1.32-.05,2-.06,3.62-.06,4.97-.02,7.82-.59,8.97-6.71,13.6-.92.69-2,1.51-3.29,2.52-1.39,1.09-2.74,2.27-4.31,3.64-.8.7-1.65,1.44-2.58,2.23l-3.17,2.71-9.72-12.36Z"/>
  <path class="cls-1" d="m263.61,35.96c9.94-7.82,8.18-4.48,8.53-18.04.07-2.76.53-5.73-.85-9.55-7.09,9.55-13.5,18.19-19.95,26.88,1.85,2.36,3.32,4.22,5.25,6.68,2.75-2.35,4.81-4.25,7.02-5.98Z"/>
</svg>